# xmcd
#
# Track frame offsets:
#	150
#	13583
#	28920
#	46690
#	64144
#	83018
#	100366
#	115645
#	132343
#	152242
#	168830
#	187207
#	203928
#	221495
#
# Disc length: 3152 seconds
#
# Revision: 0
# Processed by: cddbd v1.5.2PL0 Copyright (c) Steve Scherf et al.
# Submitted via: audiograbber 1.83.01
#
DISCID=be0c4e0e
DTITLE=Star Disc Karaoke - SD165
DYEAR=2008
DGENRE=Karaoke
TTITLE0=Taylor Swift - Picture To Burn
TTITLE1=George Strait - I Saw God Today
TTITLE2=Jewel - Stronger Woman
TTITLE3=Blake Shelton - Home
TTITLE4=Sara Evans - Some Things Never Change
TTITLE5=Clay Walker - She Likes It In The Morning
TTITLE6=Jason Michael Carroll - I Can Sleep When I'm Dead
TTITLE7=LeAnn Rimes - Good Friend And A Glass Of Wine
TTITLE8=Eagles - Busy Being Fabulous
TTITLE9=Phil Stacey - If You Didn't Love Me
TTITLE10=Randy Owen - Braid My Hair
TTITLE11=Mica Roberts w/ Toby Keith - Things A Mama Don't Know
TTITLE12=Willie Nelson - Gravedigger
TTITLE13=Justin Moore - I Could Kick Your Ass
EXTD=
EXTT0=
EXTT1=
EXTT2=
EXTT3=
EXTT4=
EXTT5=
EXTT6=
EXTT7=
EXTT8=
EXTT9=
EXTT10=
EXTT11=
EXTT12=
EXTT13=
PLAYORDER=
